<svg width="112" height="81" viewBox="0 0 112 81" fill="none" xmlns="http://www.w3.org/2000/svg">
<g clip-path="url(#clip0_722_5)">
<path d="M82.3339 26.6294V1.64714H87.5356V26.6294H82.3339Z" fill="white"/>
<path d="M69.0968 26.9716C65.6404 26.9716 62.7999 24.9867 62.7999 21.3591V21.2907C62.7999 17.2867 65.8457 15.4387 70.1919 15.4387C72.0399 15.4387 73.3746 15.7467 74.675 16.1916V15.8836C74.675 13.7276 73.3404 12.5298 70.7395 12.5298C68.7546 12.5298 67.3515 12.9063 65.6746 13.5223L64.3742 9.55247C66.3933 8.6627 68.3781 8.08092 71.4924 8.08092C74.3328 8.08092 76.3862 8.83381 77.6866 10.1343C79.0555 11.5031 79.6715 13.5223 79.6715 15.9863V26.6294H74.6408V24.6445C73.3746 26.0476 71.6293 26.9716 69.0968 26.9716ZM70.671 23.3783C73.1008 23.3783 74.7435 22.0436 74.7435 20.1614V19.2374C73.8537 18.8267 72.6902 18.5529 71.4239 18.5529C69.1995 18.5529 67.8306 19.4427 67.8306 21.0854V21.1538C67.8306 22.5569 68.9941 23.3783 70.671 23.3783Z" fill="white"/>
<path d="M55.8611 26.6294V8.28625H61.0629V26.6294H55.8611Z" fill="white"/>
<path d="M46.7823 27.04C41.2726 27.04 37.2343 22.7965 37.2343 17.5605V17.492C37.2343 12.256 41.2383 7.94403 46.8508 7.94403C50.3072 7.94403 52.4632 9.10759 54.1743 11.024L50.9917 14.4463C49.8281 13.2143 48.6646 12.4271 46.8166 12.4271C44.2157 12.4271 42.3677 14.72 42.3677 17.4236V17.492C42.3677 20.2983 44.1814 22.5569 47.0219 22.5569C48.7672 22.5569 49.965 21.804 51.2312 20.6063L54.277 23.6863C52.4974 25.6369 50.4441 27.04 46.7823 27.04Z" fill="white"/>
<path d="M26.4522 27.04C20.7713 27.04 16.562 22.8307 16.562 17.5605V17.492C16.562 12.2218 20.8055 7.94403 26.5206 7.94403C32.2015 7.94403 36.4108 12.1534 36.4108 17.4236V17.492C36.4108 22.7623 32.1673 27.04 26.4522 27.04ZM26.5206 22.5569C29.4979 22.5569 31.2775 20.264 31.2775 17.5605V17.492C31.2775 14.7885 29.3268 12.4271 26.4522 12.4271C23.4748 12.4271 21.6953 14.72 21.6953 17.4236V17.492C21.6953 20.1956 23.646 22.5569 26.5206 22.5569Z" fill="white"/>
<path d="M8.7609 26.9716C6.19423 26.9716 3.31956 26.116 0.889786 24.1996L3.11423 20.7774C5.09912 22.2147 7.18667 22.9676 8.89779 22.9676C10.4036 22.9676 11.088 22.42 11.088 21.5987V21.5302C11.088 20.4009 9.30845 20.0245 7.28934 19.4085C4.72267 18.6556 1.81379 17.4578 1.81379 13.8987V13.8302C1.81379 10.1 4.82534 8.01247 8.52134 8.01247C10.8485 8.01247 13.3809 8.79958 15.3658 10.1342L13.3809 13.7276C11.5671 12.6667 9.75334 12.0165 8.41867 12.0165C7.15245 12.0165 6.50223 12.564 6.50223 13.2827V13.3511C6.50223 14.3778 8.24756 14.8569 10.2325 15.5414C12.7991 16.3969 15.7765 17.6289 15.7765 20.9827V21.0511C15.7765 25.1236 12.7307 26.9716 8.7609 26.9716Z" fill="white"/>
<path d="M47.7344 54.6294V36.2863H52.9362V38.8871C54.134 37.3471 55.674 35.944 58.3091 35.944C62.2446 35.944 64.5375 38.5449 64.5375 42.7543V54.6294H59.3357V44.3969C59.3357 41.9329 58.1722 40.6667 56.1873 40.6667C54.2024 40.6667 52.9362 41.9329 52.9362 44.3969V54.6294H47.7344Z" fill="white"/>
<path d="M34.7369 54.9716C31.2804 54.9716 28.44 52.9867 28.44 49.3592V49.2907C28.44 45.2867 31.4858 43.4387 35.832 43.4387C37.68 43.4387 39.0147 43.7467 40.3151 44.1916V43.8836C40.3151 41.7276 38.9804 40.5298 36.3796 40.5298C34.3947 40.5298 32.9916 40.9063 31.3147 41.5223L30.0142 37.5525C32.0333 36.6627 34.0182 36.0809 37.1324 36.0809C39.9729 36.0809 42.0262 36.8338 43.3267 38.1343C44.6956 39.5032 45.3116 41.5223 45.3116 43.9863V54.6294H40.2809V52.6445C39.0147 54.0476 37.2693 54.9716 34.7369 54.9716ZM36.3111 51.3783C38.7409 51.3783 40.3836 50.0436 40.3836 48.1614V47.2374C39.4938 46.8267 38.3302 46.5529 37.064 46.5529C34.8396 46.5529 33.4707 47.4427 33.4707 49.0854V49.1538C33.4707 50.5569 34.6342 51.3783 36.3111 51.3783Z" fill="white"/>
<path d="M19.2931 55.04C13.7833 55.04 9.71083 51.1729 9.71083 45.5605V45.492C9.71083 40.256 13.4411 35.944 18.7797 35.944C24.9055 35.944 27.7117 40.7009 27.7117 45.9027C27.7117 46.3134 27.6775 46.7925 27.6433 47.2716H14.8784C15.3917 49.6329 17.0344 50.8649 19.3615 50.8649C21.1068 50.8649 22.3731 50.3174 23.8104 48.9827L26.7877 51.6178C25.0766 53.7396 22.6126 55.04 19.2931 55.04ZM14.8099 44.0205H22.6468C22.3388 41.6934 20.9699 40.1191 18.7797 40.1191C16.6237 40.1191 15.2206 41.6591 14.8099 44.0205Z" fill="white"/>
<path d="M2.56667 54.6294V29.6472H7.76844V54.6294H2.56667Z" fill="white"/>
<path d="M98.8549 78.2614C96.2882 78.2614 93.4135 77.4059 90.9838 75.4894L93.2082 72.0672C95.1931 73.5045 97.2807 74.2574 98.9918 74.2574C100.498 74.2574 101.182 73.7099 101.182 72.8885V72.8201C101.182 71.6907 99.4024 71.3143 97.3833 70.6983C94.8167 69.9454 91.9078 68.7476 91.9078 65.1885V65.1201C91.9078 61.3899 94.9193 59.3023 98.6153 59.3023C100.942 59.3023 103.475 60.0894 105.46 61.4241L103.475 65.0174C101.661 63.9565 99.8473 63.3063 98.5127 63.3063C97.2464 63.3063 96.5962 63.8539 96.5962 64.5725V64.641C96.5962 65.6676 98.3415 66.1467 100.326 66.8312C102.893 67.6867 105.87 68.9187 105.87 72.2725V72.341C105.87 76.4134 102.825 78.2614 98.8549 78.2614Z" fill="white"/>
<path d="M79.4236 78.2614C75.9672 78.2614 73.1267 76.2765 73.1267 72.649V72.5805C73.1267 68.5765 76.1725 66.7285 80.5187 66.7285C82.3667 66.7285 83.7014 67.0365 85.0018 67.4814V67.1734C85.0018 65.0174 83.6672 63.8196 81.0663 63.8196C79.0814 63.8196 77.6783 64.1961 76.0014 64.8121L74.7009 60.8423C76.72 59.9525 78.7049 59.3707 81.8192 59.3707C84.6596 59.3707 86.7129 60.1236 88.0134 61.4241C89.3823 62.793 89.9983 64.8121 89.9983 67.2761V77.9192H84.9676V75.9343C83.7014 77.3374 81.956 78.2614 79.4236 78.2614ZM80.9978 74.6681C83.4276 74.6681 85.0703 73.3334 85.0703 71.4512V70.5272C84.1805 70.1165 83.0169 69.8427 81.7507 69.8427C79.5263 69.8427 78.1574 70.7325 78.1574 72.3752V72.4436C78.1574 73.8467 79.3209 74.6681 80.9978 74.6681Z" fill="white"/>
<path d="M62.2024 78.0561L54.9815 59.5761H60.4913L64.5979 71.8619L68.7388 59.5761H74.1459L66.925 78.0561H62.2024Z" fill="white"/>
<path d="M38.0238 77.9192V59.5761H43.2256V62.177C44.4234 60.637 45.9634 59.2339 48.5985 59.2339C52.5341 59.2339 54.8269 61.8347 54.8269 66.0441V77.9192H49.6252V67.6867C49.6252 65.2227 48.4616 63.9565 46.4767 63.9565C44.4918 63.9565 43.2256 65.2227 43.2256 67.6867V77.9192H38.0238Z" fill="white"/>
<path d="M25.0263 78.2614C21.5699 78.2614 18.7294 76.2765 18.7294 72.649V72.5805C18.7294 68.5765 21.7752 66.7285 26.1214 66.7285C27.9694 66.7285 29.3041 67.0365 30.6046 67.4814V67.1734C30.6046 65.0174 29.2699 63.8196 26.669 63.8196C24.6841 63.8196 23.281 64.1961 21.6041 64.8121L20.3037 60.8423C22.3228 59.9525 24.3077 59.3707 27.4219 59.3707C30.2623 59.3707 32.3157 60.1236 33.6161 61.4241C34.985 62.793 35.601 64.8121 35.601 67.2761V77.9192H30.5703V75.9343C29.3041 77.3374 27.5588 78.2614 25.0263 78.2614ZM26.6006 74.6681C29.0303 74.6681 30.673 73.3334 30.673 71.4512V70.5272C29.7832 70.1165 28.6197 69.8427 27.3534 69.8427C25.129 69.8427 23.7601 70.7325 23.7601 72.3752V72.4436C23.7601 73.8467 24.9237 74.6681 26.6006 74.6681Z" fill="white"/>
<path d="M10.9853 78.3299C5.47555 78.3299 1.43733 74.0863 1.43733 68.8503V68.7819C1.43733 63.5459 5.44133 59.2339 11.0538 59.2339C14.5102 59.2339 16.6662 60.3974 18.3773 62.3139L15.1947 65.7361C14.0311 64.5041 12.8676 63.717 11.0196 63.717C8.41866 63.717 6.57066 66.0099 6.57066 68.7134V68.7819C6.57066 71.5881 8.38444 73.8467 11.2249 73.8467C12.9702 73.8467 14.168 73.0939 15.4342 71.8961L18.48 74.9761C16.7004 76.9267 14.6471 78.3299 10.9853 78.3299Z" fill="white"/>
<ellipse cx="58.7434" cy="3.13287" rx="3.135" ry="3.13287" fill="white"/>
</g>
<defs>
<clipPath id="clip0_722_5">
<rect width="112" height="80.6713" fill="white"/>
</clipPath>
</defs>
</svg>
