<svg width="345" height="84" viewBox="0 0 345 84" fill="none" xmlns="http://www.w3.org/2000/svg">
<path fill-rule="evenodd" clip-rule="evenodd" d="M34.9299 81.8755C54.2212 81.8755 69.8598 66.2368 69.8598 46.9456C69.8598 27.6543 54.2212 12.0157 34.9299 12.0157C15.6386 12.0157 0 27.6543 0 46.9456C0 66.2368 15.6386 81.8755 34.9299 81.8755ZM34.6505 75.7278C50.7008 75.7278 63.7121 62.7165 63.7121 46.6661C63.7121 30.6158 50.7008 17.6045 34.6505 17.6045C18.6001 17.6045 5.58878 30.6158 5.58878 46.6661C5.58878 62.7165 18.6001 75.7278 34.6505 75.7278Z" fill="black"/>
<path d="M272.967 45.9334C267.765 45.9334 263.592 44.3393 260.446 41.1513C257.341 37.9212 255.789 33.8103 255.789 28.8185C255.789 23.9525 257.32 19.9045 260.383 16.6745C263.487 13.4444 267.472 11.8294 272.338 11.8294C276.742 11.8294 280.413 13.1718 283.349 15.8565C287.209 19.3801 289.096 24.6027 289.012 31.5241H265.857C266.192 33.7474 266.968 35.4883 268.185 36.7467C269.401 37.9632 271.037 38.5714 273.093 38.5714C275.736 38.5714 277.518 37.5018 278.441 35.3624H288.446C287.691 38.4666 285.887 41.0044 283.035 42.976C280.224 44.9476 276.868 45.9334 272.967 45.9334ZM265.92 25.4207H278.63C278.462 23.4911 277.812 21.9599 276.679 20.8273C275.589 19.6947 274.205 19.1284 272.527 19.1284C268.877 19.1284 266.675 21.2258 265.92 25.4207Z" fill="black"/>
<path d="M235.85 44.9895L224.713 12.7733H235.284L239.689 27.3083L241.45 33.7893H241.576C242.122 31.608 242.709 29.4477 243.338 27.3083L247.806 12.7733H258.062L246.925 44.9895H235.85Z" fill="black"/>
<path d="M214.066 44.9895V12.7732H224.322V44.9895H214.066ZM214.066 8.30575V0H224.322V8.30575H214.066Z" fill="black"/>
<path d="M206.667 45.367C203.395 45.367 200.857 44.7168 199.053 43.4165C197.292 42.0741 196.411 39.767 196.411 36.495V19.1913H192.132V12.7733H196.411V2.57983H206.415V12.7733H212.267V19.1913H206.415V34.2927C206.415 35.4673 206.709 36.2853 207.296 36.7467C207.926 37.2081 208.827 37.4388 210.002 37.4388C210.338 37.4388 210.778 37.4388 211.323 37.4388C211.869 37.3969 212.183 37.3759 212.267 37.3759V44.8637C211.093 45.1993 209.226 45.367 206.667 45.367Z" fill="black"/>
<path d="M171.855 45.8075C168.541 45.8075 165.878 44.9476 163.864 43.2277C161.851 41.5078 160.844 39.0958 160.844 35.9916C160.844 32.7196 161.934 30.3496 164.116 28.8814C166.297 27.3712 169.317 26.3645 173.177 25.8611C176.323 25.4836 178.462 25.0641 179.595 24.6027C180.769 24.0993 181.357 23.3232 181.357 22.2745C181.357 19.9674 179.888 18.8138 176.952 18.8138C173.806 18.8138 172.065 20.1981 171.729 22.9667H162.291C162.417 19.7786 163.717 17.1359 166.192 15.0385C168.709 12.941 172.275 11.8923 176.889 11.8923C181.503 11.8923 184.985 12.7732 187.334 14.5351C190.061 16.5066 191.424 19.5689 191.424 23.7217V39.9557C191.424 42.5146 191.802 44.0457 192.557 44.549V44.9895H182.615C182.196 44.4022 181.839 43.2067 181.545 41.4029H181.419C179.364 44.3393 176.176 45.8075 171.855 45.8075ZM175.127 39.2636C177.057 39.2636 178.609 38.7392 179.783 37.6905C181 36.5999 181.608 35.1946 181.608 33.4747V29.6364C180.601 30.1398 178.84 30.7061 176.323 31.3353C174.267 31.7968 172.82 32.3421 171.981 32.9713C171.142 33.6006 170.723 34.5024 170.723 35.677C170.723 38.068 172.191 39.2636 175.127 39.2636Z" fill="black"/>
<path d="M144.763 45.9334C139.561 45.9334 135.387 44.3393 132.241 41.1513C129.137 37.9212 127.585 33.8103 127.585 28.8185C127.585 23.9525 129.116 19.9045 132.178 16.6745C135.282 13.4444 139.268 11.8294 144.134 11.8294C148.538 11.8294 152.209 13.1718 155.145 15.8565C159.004 19.3801 160.892 24.6027 160.808 31.5241H137.653C137.988 33.7474 138.764 35.4883 139.981 36.7467C141.197 37.9632 142.833 38.5714 144.889 38.5714C147.531 38.5714 149.314 37.5018 150.237 35.3624H160.242C159.487 38.4666 157.683 41.0044 154.83 42.976C152.02 44.9476 148.664 45.9334 144.763 45.9334ZM137.715 25.4207H150.426C150.258 23.4911 149.608 21.9599 148.475 20.8273C147.385 19.6947 146 19.1284 144.322 19.1284C140.673 19.1284 138.471 21.2258 137.715 25.4207Z" fill="black"/>
<path d="M107.447 44.9895V12.7732H117.263V17.807H117.451C119.633 14.1156 122.569 12.2699 126.261 12.2699C127.225 12.2699 127.897 12.3538 128.274 12.5216V21.3307H128.022C124.834 20.8693 122.317 21.4356 120.472 23.0296C118.626 24.5817 117.703 27.0776 117.703 30.5174V44.9895H107.447Z" fill="black"/>
<path d="M90.7759 45.9963C85.6582 45.9963 81.5263 44.3813 78.3801 41.1512C75.234 37.9212 73.661 33.8522 73.661 28.9443C73.661 24.0364 75.2131 19.9674 78.3172 16.7374C81.4214 13.5073 85.4904 11.8923 90.5242 11.8923C94.8029 11.8923 98.3056 13.0249 101.032 15.2901C103.759 17.5553 105.353 20.5337 105.814 24.2251H95.9355C95.2224 21.0371 93.4605 19.443 90.65 19.443C88.4687 19.443 86.8117 20.282 85.6791 21.9599C84.5885 23.6378 84.0432 25.966 84.0432 28.9443C84.0432 31.8807 84.6095 34.1878 85.7421 35.8658C86.8747 37.5017 88.5106 38.3197 90.65 38.3197C93.922 38.3197 95.7887 36.474 96.2501 32.7826H106.066C105.94 36.5999 104.472 39.7669 101.661 42.2838C98.8928 44.7588 95.2643 45.9963 90.7759 45.9963Z" fill="black"/>
<path d="M329.865 84C325.166 84 321.412 82.9932 318.602 80.9797C315.833 78.9243 314.365 76.1137 314.197 72.5481H323.887C324.265 75.7362 326.236 77.3302 329.802 77.3302C331.354 77.3302 332.57 77.0576 333.451 76.5122C334.374 75.925 334.836 75.128 334.836 74.1212C334.836 73.7856 334.794 73.492 334.71 73.2403C334.626 72.9886 334.479 72.7579 334.269 72.5481C334.059 72.3384 333.85 72.1496 333.64 71.9818C333.472 71.814 333.2 71.6672 332.822 71.5414C332.444 71.3736 332.109 71.2477 331.815 71.1638C331.564 71.08 331.165 70.9961 330.62 70.9122C330.116 70.7863 329.718 70.7024 329.424 70.6605C329.131 70.5766 328.669 70.4927 328.04 70.4088C327.411 70.2829 326.949 70.199 326.656 70.1571C325.313 69.9473 324.181 69.7376 323.258 69.5279C322.335 69.2762 321.307 68.8986 320.175 68.3953C319.084 67.8919 318.182 67.3256 317.469 66.6964C316.798 66.0252 316.231 65.1443 315.77 64.0536C315.309 62.921 315.078 61.6206 315.078 60.1524C315.078 56.8805 316.399 54.3426 319.042 52.5388C321.685 50.735 324.999 49.8332 328.984 49.8332C333.472 49.8332 336.954 50.756 339.429 52.6017C341.904 54.4055 343.267 56.9224 343.519 60.1524H334.08C333.745 57.6355 332.025 56.3771 328.921 56.3771C327.578 56.3771 326.488 56.6288 325.649 57.1322C324.852 57.6355 324.453 58.3696 324.453 59.3344C324.453 59.5861 324.495 59.8168 324.579 60.0266C324.663 60.2363 324.789 60.4251 324.957 60.5929C325.166 60.7607 325.355 60.9075 325.523 61.0333C325.733 61.1592 326.005 61.285 326.341 61.4109C326.677 61.5367 326.97 61.6416 327.222 61.7255C327.516 61.8094 327.893 61.8933 328.354 61.9772C328.858 62.0611 329.256 62.145 329.55 62.2289C329.886 62.2708 330.326 62.3547 330.871 62.4806C331.417 62.5645 331.857 62.6274 332.193 62.6693C333.619 62.921 334.794 63.1517 335.716 63.3615C336.639 63.5712 337.709 63.9487 338.925 64.4941C340.184 64.9975 341.17 65.6057 341.883 66.3188C342.596 66.99 343.204 67.9338 343.708 69.1503C344.253 70.3249 344.526 71.7092 344.526 73.3032C344.526 76.743 343.162 79.3857 340.436 81.2314C337.751 83.0771 334.227 84 329.865 84Z" fill="black"/>
<path d="M282.15 82.9933V50.777H292.029V55.1816H292.217C294.692 51.616 298.006 49.8332 302.159 49.8332C305.641 49.8332 308.367 50.9658 310.339 53.231C312.353 55.4542 313.359 58.3906 313.359 62.0401V82.9933H303.103V64.1165C303.103 62.3547 302.663 60.9704 301.782 59.9637C300.943 58.915 299.705 58.3906 298.069 58.3906C296.391 58.3906 295.028 59.0198 293.979 60.2783C292.931 61.5367 292.406 63.1727 292.406 65.1862V82.9933H282.15Z" fill="black"/>
<path d="M258.296 74.0582C259.47 75.8201 261.148 76.701 263.33 76.701C265.511 76.701 267.189 75.8201 268.363 74.0582C269.58 72.2964 270.188 69.9263 270.188 66.948C270.188 63.9697 269.58 61.5996 268.363 59.8378C267.189 58.034 265.511 57.1321 263.33 57.1321C261.148 57.1321 259.47 58.013 258.296 59.7749C257.121 61.5367 256.534 63.9277 256.534 66.948C256.534 69.9263 257.121 72.2964 258.296 74.0582ZM275.788 79.155C272.642 82.385 268.51 84 263.393 84C258.275 84 254.122 82.385 250.934 79.155C247.746 75.9249 246.152 71.856 246.152 66.948C246.152 62.0401 247.746 57.9711 250.934 54.7411C254.122 51.5111 258.275 49.8961 263.393 49.8961C268.51 49.8961 272.642 51.5111 275.788 54.7411C278.976 57.9711 280.57 62.0401 280.57 66.948C280.57 71.856 278.976 75.9249 275.788 79.155Z" fill="black"/>
<path d="M194.798 82.9933V50.777H204.614V55.3703H204.803C207.026 51.6789 210.277 49.8332 214.556 49.8332C218.793 49.8332 221.813 51.7208 223.617 55.4962H223.743C226.176 51.7208 229.552 49.8332 233.873 49.8332C237.439 49.8332 240.144 50.9448 241.99 53.168C243.878 55.3494 244.822 58.3067 244.822 62.0401V82.9933H234.565V63.8648C234.565 60.2154 233.055 58.3906 230.035 58.3906C228.441 58.3906 227.182 58.9989 226.259 60.2154C225.379 61.3899 224.938 62.963 224.938 64.9345V82.9933H214.682V63.8648C214.682 60.2154 213.172 58.3906 210.151 58.3906C208.557 58.3906 207.299 58.9989 206.376 60.2154C205.495 61.3899 205.055 62.963 205.055 64.9345V82.9933H194.798Z" fill="black"/>
<path d="M141.998 82.9933V50.777H151.813V55.3703H152.002C154.226 51.6789 157.477 49.8332 161.755 49.8332C165.992 49.8332 169.012 51.7208 170.816 55.4962H170.942C173.375 51.7208 176.752 49.8332 181.072 49.8332C184.638 49.8332 187.344 50.9448 189.189 53.168C191.077 55.3494 192.021 58.3067 192.021 62.0401V82.9933H181.765V63.8648C181.765 60.2154 180.254 58.3906 177.234 58.3906C175.64 58.3906 174.382 58.9989 173.459 60.2154C172.578 61.3899 172.137 62.963 172.137 64.9345V82.9933H161.881V63.8648C161.881 60.2154 160.371 58.3906 157.351 58.3906C155.757 58.3906 154.498 58.9989 153.575 60.2154C152.694 61.3899 152.254 62.963 152.254 64.9345V82.9933H141.998Z" fill="black"/>
<path d="M118.144 74.0582C119.318 75.8201 120.996 76.701 123.177 76.701C125.359 76.701 127.037 75.8201 128.211 74.0582C129.428 72.2964 130.036 69.9263 130.036 66.948C130.036 63.9697 129.428 61.5996 128.211 59.8378C127.037 58.034 125.359 57.1321 123.177 57.1321C120.996 57.1321 119.318 58.013 118.144 59.7749C116.969 61.5367 116.382 63.9277 116.382 66.948C116.382 69.9263 116.969 72.2964 118.144 74.0582ZM135.636 79.155C132.49 82.385 128.358 84 123.24 84C118.123 84 113.97 82.385 110.782 79.155C107.594 75.9249 106 71.856 106 66.948C106 62.0401 107.594 57.9711 110.782 54.7411C113.97 51.5111 118.123 49.8961 123.24 49.8961C128.358 49.8961 132.49 51.5111 135.636 54.7411C138.824 57.9711 140.418 62.0401 140.418 66.948C140.418 71.856 138.824 75.9249 135.636 79.155Z" fill="black"/>
<path d="M90.7759 84C85.6582 84 81.5263 82.385 78.3801 79.155C75.234 75.9249 73.661 71.856 73.661 66.948C73.661 62.0401 75.2131 57.9711 78.3172 54.7411C81.4214 51.5111 85.4904 49.8961 90.5242 49.8961C94.8029 49.8961 98.3056 51.0287 101.032 53.2939C103.759 55.5591 105.353 58.5374 105.814 62.2288H95.9355C95.2224 59.0408 93.4605 57.4467 90.65 57.4467C88.4687 57.4467 86.8117 58.2857 85.6791 59.9636C84.5885 61.6416 84.0432 63.9697 84.0432 66.948C84.0432 69.8844 84.6095 72.1916 85.7421 73.8695C86.8747 75.5055 88.5106 76.3235 90.65 76.3235C93.922 76.3235 95.7887 74.4777 96.2501 70.7863H106.066C105.94 74.6036 104.472 77.7707 101.661 80.2876C98.8928 82.7625 95.2643 84 90.7759 84Z" fill="black"/>
<path d="M45.1031 57.4654C41.8891 57.4654 39.2942 56.4511 37.3184 54.4226C35.3426 52.3941 34.3546 49.8387 34.3546 46.7564C34.3546 43.6741 35.3294 41.1187 37.2789 39.0902C39.2283 37.0617 41.7837 36.0474 44.9451 36.0474C47.6322 36.0474 49.8319 36.7587 51.5443 38.1813C53.2567 39.6039 54.2578 41.4744 54.5476 43.7927H48.3435C47.8956 41.7905 46.7892 40.7894 45.0241 40.7894C43.6542 40.7894 42.6136 41.3163 41.9023 42.3701C41.2173 43.4238 40.8749 44.8859 40.8749 46.7564C40.8749 48.6005 41.2305 50.0494 41.9418 51.1032C42.6531 52.1306 43.6805 52.6443 45.0241 52.6443C47.0789 52.6443 48.2513 51.4852 48.5411 49.1669H54.7056C54.6266 51.5642 53.7045 53.5532 51.9395 55.1339C50.2007 56.6882 47.922 57.4654 45.1031 57.4654Z" fill="black"/>
<path d="M24.7938 57.4654C21.5798 57.4654 18.9849 56.4511 17.0091 54.4226C15.0333 52.3941 14.0453 49.8387 14.0453 46.7564C14.0453 43.6741 15.0201 41.1187 16.9696 39.0902C18.919 37.0617 21.4744 36.0475 24.6358 36.0475C27.3229 36.0475 29.5226 36.7588 31.235 38.1813C32.9474 39.6039 33.9485 41.4744 34.2383 43.7927H28.0342C27.5863 41.7905 26.4799 40.7894 24.7148 40.7894C23.3449 40.7894 22.3043 41.3163 21.593 42.3701C20.908 43.4239 20.5656 44.886 20.5656 46.7564C20.5656 48.6005 20.9212 50.0495 21.6325 51.1032C22.3438 52.1307 23.3712 52.6444 24.7148 52.6444C26.7697 52.6444 27.942 51.4852 28.2318 49.1669H34.3963C34.3173 51.5643 33.3952 53.5532 31.6302 55.1339C29.8915 56.6882 27.6127 57.4654 24.7938 57.4654Z" fill="black"/>
</svg>
