<svg width="75" height="60" viewBox="0 0 75 60" fill="none" xmlns="http://www.w3.org/2000/svg">
<mask id="mask0_713_247" style="mask-type:luminance" maskUnits="userSpaceOnUse" x="0" y="1" width="75" height="59">
<path d="M0 1.162H74.583V59.373H0V1.162Z" fill="white"/>
</mask>
<g mask="url(#mask0_713_247)">
<mask id="mask1_713_247" style="mask-type:luminance" maskUnits="userSpaceOnUse" x="0" y="1" width="61" height="21">
<path d="M0 1.162H60.03V21.172H0V1.162Z" fill="white"/>
</mask>
<g mask="url(#mask1_713_247)">
<mask id="mask2_713_247" style="mask-type:luminance" maskUnits="userSpaceOnUse" x="0" y="5" width="11" height="16">
<path d="M0.0650024 5.493H10.98V20.046H0.0650024V5.493Z" fill="white"/>
</mask>
<g mask="url(#mask2_713_247)">
<path d="M5.408 18.435C8.102 18.435 10.169 17.18 10.169 14.412V14.365C10.169 12.086 8.14901 11.249 6.40601 10.667C5.05901 10.202 3.874 9.877 3.874 9.179V9.132C3.874 8.644 4.316 8.272 5.175 8.272C6.081 8.272 7.31201 8.714 8.54301 9.435L9.89001 6.993C8.54301 6.085 6.824 5.55099 5.245 5.55099C2.736 5.55099 0.692001 6.969 0.692001 9.504V9.55099C0.692001 11.97 2.667 12.784 4.409 13.295C5.779 13.715 6.98701 13.97 6.98701 14.737V14.784C6.98701 15.342 6.52201 15.714 5.50001 15.714C4.33901 15.714 2.922 15.203 1.575 14.226L0.0650024 16.552C1.715 17.854 3.66501 18.436 5.40701 18.436L5.408 18.435Z" fill="white"/>
</g>
<mask id="mask3_713_247" style="mask-type:luminance" maskUnits="userSpaceOnUse" x="10" y="5" width="16" height="16">
<path d="M10.674 5.493H25.227V20.046H10.674V5.493Z" fill="white"/>
</mask>
<g mask="url(#mask3_713_247)">
<path fill-rule="evenodd" clip-rule="evenodd" d="M24.174 11.993C24.174 15.574 21.294 18.482 17.415 18.482C13.559 18.482 10.702 15.621 10.702 12.039V11.993C10.702 8.411 13.582 5.503 17.462 5.503C21.317 5.503 24.174 8.364 24.174 11.946V11.993ZM14.187 11.993C14.187 13.831 15.51 15.436 17.462 15.436C19.482 15.436 20.69 13.877 20.69 12.04V11.993C20.69 10.156 19.366 8.551 17.415 8.551C15.395 8.551 14.187 10.109 14.187 11.947V11.993Z" fill="white"/>
</g>
<mask id="mask4_713_247" style="mask-type:luminance" maskUnits="userSpaceOnUse" x="24" y="5" width="14" height="16">
<path d="M24.69 5.493H37.424V20.046H24.69V5.493Z" fill="white"/>
</mask>
<g mask="url(#mask4_713_247)">
<path d="M31.214 18.482C33.699 18.482 35.093 17.528 36.301 16.202L34.234 14.109C33.374 14.923 32.561 15.435 31.377 15.435C29.449 15.435 28.217 13.9 28.217 11.993V11.946C28.217 10.109 29.472 8.55 31.237 8.55C32.492 8.55 33.281 9.085 34.071 9.923L36.231 7.597C35.07 6.294 33.606 5.504 31.26 5.504C27.451 5.504 24.733 8.434 24.733 11.993V12.039C24.733 15.598 27.474 18.482 31.214 18.482Z" fill="white"/>
</g>
<mask id="mask5_713_247" style="mask-type:luminance" maskUnits="userSpaceOnUse" x="37" y="5" width="4" height="14">
<path d="M37.312 5.724H40.95V18.458H37.312V5.724Z" fill="white"/>
</mask>
<g mask="url(#mask5_713_247)">
<path d="M37.376 18.204H40.907V5.738H37.376V18.204Z" fill="white"/>
</g>
<mask id="mask6_713_247" style="mask-type:luminance" maskUnits="userSpaceOnUse" x="42" y="5" width="13" height="16">
<path d="M42.035 5.57H54.769V20.123H42.035V5.57Z" fill="white"/>
</mask>
<g mask="url(#mask6_713_247)">
<path fill-rule="evenodd" clip-rule="evenodd" d="M50.122 16.854C49.263 17.808 48.078 18.436 46.359 18.436C44.013 18.436 42.085 17.086 42.085 14.622V14.575C42.085 11.854 44.153 10.598 47.103 10.598C48.357 10.598 49.263 10.808 50.145 11.11V10.9C50.145 9.435 49.24 8.621 47.474 8.621C46.127 8.621 45.175 8.877 44.037 9.295L43.154 6.598C44.524 5.993 45.872 5.598 47.985 5.598C49.913 5.598 51.307 6.109 52.19 6.993C53.119 7.923 53.537 9.295 53.537 10.97V18.203H50.122V16.854ZM45.5 14.484C45.5 15.437 46.29 15.995 47.428 15.995C49.077 15.995 50.192 15.088 50.192 13.809V13.181C49.588 12.901 48.798 12.716 47.939 12.716C46.429 12.716 45.5 13.321 45.5 14.436V14.484Z" fill="white"/>
</g>
<mask id="mask7_713_247" style="mask-type:luminance" maskUnits="userSpaceOnUse" x="55" y="1" width="4" height="19">
<path d="M55.277 1.224H58.915V19.415H55.277V1.224Z" fill="white"/>
</mask>
<g mask="url(#mask7_713_247)">
<path d="M55.344 18.203H58.875V1.223H55.344V18.203Z" fill="white"/>
</g>
</g>
<mask id="mask8_713_247" style="mask-type:luminance" maskUnits="userSpaceOnUse" x="1" y="21" width="44" height="21">
<path d="M1.161 21.105H44.819V41.115H1.161V21.105Z" fill="white"/>
</mask>
<g mask="url(#mask8_713_247)">
<mask id="mask9_713_247" style="mask-type:luminance" maskUnits="userSpaceOnUse" x="1" y="21" width="4" height="19">
<path d="M1.20499 21.133H4.84299V39.324H1.20499V21.133Z" fill="white"/>
</mask>
<g mask="url(#mask9_713_247)">
<path d="M1.20398 38.111H4.73398V21.133H1.20398V38.111Z" fill="white"/>
</g>
<mask id="mask10_713_247" style="mask-type:luminance" maskUnits="userSpaceOnUse" x="6" y="25" width="13" height="15">
<path d="M6.004 25.404H18.738V39.957H6.004V25.404Z" fill="white"/>
</mask>
<g mask="url(#mask10_713_247)">
<path fill-rule="evenodd" clip-rule="evenodd" d="M17.643 36.066C16.482 37.508 14.809 38.392 12.556 38.392C8.81601 38.392 6.052 35.764 6.052 31.949V31.903C6.052 28.344 8.584 25.413 12.208 25.413C16.365 25.413 18.27 28.647 18.27 32.182C18.27 32.461 18.247 32.787 18.224 33.112H9.56001C9.90801 34.717 11.023 35.554 12.603 35.554C13.787 35.554 14.647 35.182 15.623 34.275L17.643 36.066ZM12.207 28.25C10.744 28.25 9.792 29.297 9.513 30.902H14.833C14.623 29.32 13.694 28.25 12.207 28.25Z" fill="white"/>
</g>
<mask id="mask11_713_247" style="mask-type:luminance" maskUnits="userSpaceOnUse" x="18" y="25" width="14" height="16">
<path d="M18.704 25.48H31.438V40.033H18.704V25.48Z" fill="white"/>
</mask>
<g mask="url(#mask11_713_247)">
<path fill-rule="evenodd" clip-rule="evenodd" d="M26.801 36.764C25.942 37.718 24.757 38.346 23.039 38.346C20.693 38.346 18.765 36.997 18.765 34.532V34.485C18.765 31.764 20.832 30.508 23.782 30.508C25.036 30.508 25.942 30.718 26.825 31.02V30.81C26.825 29.345 25.919 28.531 24.154 28.531C22.806 28.531 21.854 28.787 20.716 29.206L19.833 26.508C21.203 25.903 22.551 25.508 24.664 25.508C26.592 25.508 27.986 26.019 28.869 26.903C29.798 27.833 30.216 29.206 30.216 30.88V38.113H26.801V36.764ZM22.178 34.39C22.178 35.344 22.968 35.902 24.106 35.902C25.756 35.902 26.871 34.995 26.871 33.716V33.088C26.267 32.808 25.477 32.623 24.617 32.623C23.107 32.623 22.179 33.227 22.179 34.343L22.178 34.39Z" fill="white"/>
</g>
<mask id="mask12_713_247" style="mask-type:luminance" maskUnits="userSpaceOnUse" x="31" y="25" width="14" height="14">
<path d="M31.791 25.404H44.525V38.138H31.791V25.404Z" fill="white"/>
</mask>
<g mask="url(#mask12_713_247)">
<path d="M31.86 38.113H35.391V31.159C35.391 29.484 36.25 28.624 37.598 28.624C38.945 28.624 39.735 29.484 39.735 31.159V38.113H43.265V30.043C43.265 27.182 41.709 25.413 39.038 25.413C37.249 25.413 36.204 26.367 35.391 27.414V25.646H31.86V38.113Z" fill="white"/>
</g>
</g>
<mask id="mask13_713_247" style="mask-type:luminance" maskUnits="userSpaceOnUse" x="0" y="42" width="74" height="17">
<path d="M0.386993 42.523H73.151V58.895H0.386993V42.523Z" fill="white"/>
</mask>
<g mask="url(#mask13_713_247)">
<mask id="mask14_713_247" style="mask-type:luminance" maskUnits="userSpaceOnUse" x="0" y="42" width="14" height="16">
<path d="M0.436996 42.537H13.171V57.09H0.436996V42.537Z" fill="white"/>
</mask>
<g mask="url(#mask14_713_247)">
<path d="M6.91799 55.515C9.40299 55.515 10.797 54.561 12.004 53.235L9.93799 51.143C9.07799 51.957 8.26599 52.469 7.08099 52.469C5.15299 52.469 3.92199 50.934 3.92199 49.027V48.98C3.92199 47.143 5.17599 45.585 6.94199 45.585C8.19599 45.585 8.98599 46.12 9.77599 46.957L11.936 44.631C10.774 43.329 9.31099 42.538 6.96499 42.538C3.15499 42.538 0.437988 45.468 0.437988 49.027V49.073C0.437988 52.632 3.17799 55.515 6.91799 55.515Z" fill="white"/>
</g>
<mask id="mask15_713_247" style="mask-type:luminance" maskUnits="userSpaceOnUse" x="12" y="42" width="13" height="16">
<path d="M12.129 42.613H24.863V57.166H12.129V42.613Z" fill="white"/>
</mask>
<g mask="url(#mask15_713_247)">
<path fill-rule="evenodd" clip-rule="evenodd" d="M20.212 53.888C19.352 54.841 18.168 55.469 16.449 55.469C14.103 55.469 12.175 54.12 12.175 51.655V51.608C12.175 48.888 14.242 47.631 17.192 47.631C18.446 47.631 19.352 47.841 20.235 48.143V47.933C20.235 46.468 19.329 45.654 17.564 45.654C16.217 45.654 15.264 45.91 14.126 46.329L13.243 43.631C14.613 43.026 15.961 42.631 18.075 42.631C20.003 42.631 21.396 43.142 22.279 44.026C23.208 44.956 23.626 46.329 23.626 48.003V55.236H20.212V53.888ZM15.588 51.513C15.588 52.466 16.378 53.025 17.516 53.025C19.166 53.025 20.28 52.118 20.28 50.838V50.21C19.676 49.931 18.886 49.745 18.027 49.745C16.517 49.745 15.588 50.35 15.588 51.466V51.513Z" fill="white"/>
</g>
<mask id="mask16_713_247" style="mask-type:luminance" maskUnits="userSpaceOnUse" x="25" y="42" width="13" height="14">
<path d="M25.216 42.537H37.95V55.271H25.216V42.537Z" fill="white"/>
</mask>
<g mask="url(#mask16_713_247)">
<path d="M25.269 55.236H28.799V48.282C28.799 46.607 29.659 45.747 31.007 45.747C32.354 45.747 33.143 46.607 33.143 48.282V55.236H36.674V47.166C36.674 44.305 35.118 42.536 32.447 42.536C30.658 42.536 29.613 43.491 28.8 44.537V42.77H25.27L25.269 55.236Z" fill="white"/>
</g>
<mask id="mask17_713_247" style="mask-type:luminance" maskUnits="userSpaceOnUse" x="36" y="42" width="16" height="14">
<path d="M36.755 42.691H51.308V55.425H36.755V42.691Z" fill="white"/>
</mask>
<g mask="url(#mask17_713_247)">
<path d="M41.68 55.329H44.885L49.787 42.769H46.117L43.306 51.119L40.519 42.769H36.779L41.68 55.329Z" fill="white"/>
</g>
<mask id="mask18_713_247" style="mask-type:luminance" maskUnits="userSpaceOnUse" x="49" y="42" width="13" height="16">
<path d="M49.067 42.613H61.801V57.166H49.067V42.613Z" fill="white"/>
</mask>
<g mask="url(#mask18_713_247)">
<path fill-rule="evenodd" clip-rule="evenodd" d="M57.132 53.888C56.273 54.841 55.088 55.469 53.37 55.469C51.023 55.469 49.096 54.12 49.096 51.655V51.608C49.096 48.888 51.163 47.631 54.113 47.631C55.367 47.631 56.273 47.841 57.156 48.143V47.933C57.156 46.468 56.25 45.654 54.484 45.654C53.137 45.654 52.185 45.91 51.047 46.329L50.164 43.631C51.534 43.026 52.882 42.631 54.995 42.631C56.923 42.631 58.317 43.142 59.2 44.026C60.129 44.956 60.547 46.329 60.547 48.003V55.236H57.132V53.888ZM52.509 51.513C52.509 52.466 53.299 53.025 54.437 53.025C56.086 53.025 57.201 52.118 57.201 50.838V50.21C56.597 49.931 55.808 49.745 54.948 49.745C53.438 49.745 52.509 50.35 52.509 51.466V51.513Z" fill="white"/>
</g>
<mask id="mask19_713_247" style="mask-type:luminance" maskUnits="userSpaceOnUse" x="61" y="42" width="12" height="16">
<path d="M61.147 42.537H72.062V57.09H61.147V42.537Z" fill="white"/>
</mask>
<g mask="url(#mask19_713_247)">
<path d="M66.557 55.467C69.252 55.467 71.319 54.211 71.319 51.443V51.397C71.319 49.117 69.298 48.28 67.556 47.699C66.209 47.233 65.024 46.908 65.024 46.21V46.164C65.024 45.675 65.466 45.303 66.325 45.303C67.231 45.303 68.462 45.745 69.693 46.466L71.04 44.024C69.693 43.117 67.974 42.582 66.395 42.582C63.886 42.582 61.842 44.001 61.842 46.536V46.582C61.842 49.001 63.816 49.815 65.559 50.327C66.929 50.745 68.137 51.001 68.137 51.769V51.815C68.137 52.374 67.672 52.745 66.65 52.745C65.489 52.745 64.072 52.234 62.725 51.257L61.215 53.583C62.864 54.885 64.815 55.467 66.557 55.467Z" fill="white"/>
</g>
</g>
</g>
<mask id="mask20_713_247" style="mask-type:luminance" maskUnits="userSpaceOnUse" x="37" y="0" width="8" height="8">
<path d="M37.015 0H44.291V7.276H37.015V0Z" fill="white"/>
</mask>
<g mask="url(#mask20_713_247)">
<mask id="mask21_713_247" style="mask-type:luminance" maskUnits="userSpaceOnUse" x="37" y="0" width="6" height="6">
<path d="M37.049 0.0130005H42.506V5.47H37.049V0.0130005Z" fill="white"/>
</mask>
<g mask="url(#mask21_713_247)">
<path d="M41.177 2.08C41.1773 2.35126 41.1241 2.61992 41.0205 2.87063C40.9169 3.12133 40.7649 3.34916 40.5732 3.54112C40.3816 3.73307 40.1539 3.88537 39.9034 3.98933C39.6528 4.09329 39.3843 4.14687 39.113 4.147C38.8417 4.14687 38.5732 4.09329 38.3226 3.98933C38.072 3.88537 37.8444 3.73307 37.6528 3.54112C37.4611 3.34916 37.3091 3.12133 37.2055 2.87063C37.1019 2.61992 37.0487 2.35126 37.049 2.08C37.049 0.939001 37.973 0.0130005 39.113 0.0130005C40.253 0.0130005 41.177 0.939001 41.177 2.08Z" fill="white"/>
</g>
</g>
</svg>
